<?xml version="1.0" standalone="no"?>
<svg xmlns="http://www.w3.org/2000/svg" viewBox="0 0 206.67200000000003 52.38297872340426" width="206.67200000000003" height="52.38297872340426"><rect fill="none" stroke="#00936f" stroke-width="3" width="203.67200000000003" height="49.38297872340426" x="1.5" y="1.5"></rect><path fill="#1c2149" fill-rule="nonzero" d="M14.83 1.01L16.63 1.01L9.19 17.81L7.44 17.81L0 1.01L1.92 1.01L8.35 15.60L14.83 1.01ZM18.62 17.81L18.62 5.18L20.33 5.18L20.33 17.81L18.62 17.81ZM19.49 2.42Q18.96 2.42 18.60 2.06Q18.24 1.70 18.24 1.20L18.24 1.20Q18.24 0.72 18.60 0.36Q18.96 0 19.49 0L19.49 0Q20.02 0 20.38 0.35Q20.74 0.70 20.74 1.18L20.74 1.18Q20.74 1.70 20.38 2.06Q20.02 2.42 19.49 2.42L19.49 2.42ZM26.71 7.66Q27.31 6.38 28.50 5.74Q29.69 5.09 31.44 5.09L31.44 5.09L31.44 6.74L31.03 6.72Q29.04 6.72 27.91 7.94Q26.78 9.17 26.78 11.38L26.78 11.38L26.78 17.81L25.08 17.81L25.08 5.18L26.71 5.18L26.71 7.66ZM40.13 15.82L40.73 17.04Q40.25 17.47 39.55 17.70Q38.86 17.93 38.09 17.93L38.09 17.93Q36.31 17.93 35.35 16.97Q34.39 16.01 34.39 14.26L34.39 14.26L34.39 2.42L36.10 2.42L36.10 5.18L39.91 5.18L39.91 6.62L36.10 6.62L36.10 14.16Q36.10 15.29 36.65 15.88Q37.20 16.46 38.26 16.46L38.26 16.46Q39.41 16.46 40.13 15.82L40.13 15.82ZM53.50 5.18L55.20 5.18L55.20 17.81L53.57 17.81L53.57 15.50Q52.90 16.66 51.72 17.29Q50.54 17.93 49.03 17.93L49.03 17.93Q46.56 17.93 45.13 16.55Q43.70 15.17 43.70 12.50L43.70 12.50L43.70 5.18L45.41 5.18L45.41 12.34Q45.41 14.33 46.39 15.36Q47.38 16.39 49.20 16.39L49.20 16.39Q51.19 16.39 52.34 15.18Q53.50 13.97 53.50 11.81L53.50 11.81L53.50 5.18ZM69.79 5.18L71.50 5.18L71.50 17.81L69.86 17.81L69.86 15.31Q69.10 16.58 67.84 17.26Q66.58 17.93 64.99 17.93L64.99 17.93Q63.22 17.93 61.78 17.11Q60.34 16.30 59.52 14.83Q58.70 13.37 58.70 11.50L58.70 11.50Q58.70 9.62 59.52 8.16Q60.34 6.70 61.78 5.89Q63.22 5.09 64.99 5.09L64.99 5.09Q66.53 5.09 67.76 5.72Q69 6.36 69.79 7.58L69.79 7.58L69.79 5.18ZM65.14 16.42Q66.46 16.42 67.52 15.80Q68.59 15.19 69.20 14.06Q69.82 12.94 69.82 11.50L69.82 11.50Q69.82 10.06 69.20 8.93Q68.59 7.80 67.52 7.19Q66.46 6.58 65.14 6.58L65.14 6.58Q63.79 6.58 62.72 7.19Q61.66 7.80 61.04 8.93Q60.43 10.06 60.43 11.50L60.43 11.50Q60.43 12.94 61.04 14.06Q61.66 15.19 62.72 15.80Q63.79 16.42 65.14 16.42L65.14 16.42ZM79.80 17.93Q78.10 17.93 77.17 16.97Q76.25 16.01 76.25 14.30L76.25 14.30L76.25 0L77.95 0L77.95 14.16Q77.95 15.29 78.48 15.88Q79.01 16.46 80.06 16.46L80.06 16.46Q80.74 16.46 81.22 16.25L81.22 16.25L81.34 17.66Q80.59 17.93 79.80 17.93L79.80 17.93ZM84.02 17.81L84.02 1.01L85.80 1.01L85.80 16.27L95.21 16.27L95.21 17.81L84.02 17.81ZM107.42 5.18L109.13 5.18L109.13 17.81L107.50 17.81L107.50 15.31Q106.73 16.58 105.47 17.26Q104.21 17.93 102.62 17.93L102.62 17.93Q100.85 17.93 99.41 17.11Q97.97 16.30 97.15 14.83Q96.34 13.37 96.34 11.50L96.34 11.50Q96.34 9.62 97.15 8.16Q97.97 6.70 99.41 5.89Q100.85 5.09 102.62 5.09L102.62 5.09Q104.16 5.09 105.40 5.72Q106.63 6.36 107.42 7.58L107.42 7.58L107.42 5.18ZM102.77 16.42Q104.09 16.42 105.16 15.80Q106.22 15.19 106.84 14.06Q107.45 12.94 107.45 11.50L107.45 11.50Q107.45 10.06 106.84 8.93Q106.22 7.80 105.16 7.19Q104.09 6.58 102.77 6.58L102.77 6.58Q101.42 6.58 100.36 7.19Q99.29 7.80 98.68 8.93Q98.06 10.06 98.06 11.50L98.06 11.50Q98.06 12.94 98.68 14.06Q99.29 15.19 100.36 15.80Q101.42 16.42 102.77 16.42L102.77 16.42ZM120.38 5.09Q122.16 5.09 123.60 5.89Q125.04 6.70 125.86 8.16Q126.67 9.62 126.67 11.50L126.67 11.50Q126.67 13.37 125.86 14.83Q125.04 16.30 123.60 17.11Q122.16 17.93 120.38 17.93L120.38 17.93Q118.80 17.93 117.54 17.26Q116.28 16.58 115.51 15.31L115.51 15.31L115.51 17.81L113.88 17.81L113.88 0L115.58 0L115.58 7.58Q116.38 6.36 117.61 5.72Q118.85 5.09 120.38 5.09L120.38 5.09ZM120.26 16.42Q121.58 16.42 122.66 15.80Q123.74 15.19 124.36 14.06Q124.97 12.94 124.97 11.50L124.97 11.50Q124.97 10.06 124.36 8.93Q123.74 7.80 122.66 7.19Q121.58 6.58 120.26 6.58L120.26 6.58Q118.92 6.58 117.85 7.19Q116.78 7.80 116.17 8.93Q115.56 10.06 115.56 11.50L115.56 11.50Q115.56 12.94 116.17 14.06Q116.78 15.19 117.85 15.80Q118.92 16.42 120.26 16.42L120.26 16.42Z" transform="translate(12 17.228)"></path><line x1="150.673" y1="0" x2="150.673" y2="100%" stroke="#00936f" stroke-width="3"></line><g fill="#1c2149" color="#1c2149" transform="translate(164.173, 12) scale(0.6170213)"><svg width="47.0" height="46.0" x="0.0" y="0.0" viewBox="0 0 47 46"><path fill="currentColor" fill-rule="nonzero" d="M44.78 1.64c-3.27-3.27-12.02-.08-21.36 7.22-9.34-7.3-18.09-10.5-21.36-7.22C-1.22 4.91 1.98 13.66 9.27 23 1.98 32.34-1.22 41.09 2.06 44.37c3.27 3.27 12.02.08 21.36-7.22 9.34 7.29 18.09 10.49 21.36 7.22 3.27-3.27.08-12.02-7.22-21.36 7.3-9.35 10.5-18.1 7.22-21.37zm-3.69 2.48c.69 0 .98.14 1.02.18.19.19.68 2.33-1.68 7.26-1.28 2.67-3.1 5.54-5.31 8.44-1.3-1.51-2.7-3.02-4.2-4.51-1.49-1.49-3-2.89-4.51-4.19 6.23-4.72 11.69-7.18 14.68-7.18zM32.71 23a80.65 80.65 0 0 1-9.29 9.29 82.406 82.406 0 0 1-4.84-4.45 80.65 80.65 0 0 1-4.45-4.83 79.34 79.34 0 0 1 4.45-4.84 84.12 84.12 0 0 1 4.83-4.46 79.34 79.34 0 0 1 9.3 9.29zM4.54 5.33c0-.69.14-.98.18-1.02.19-.19 2.33-.68 7.26 1.69 2.67 1.28 5.54 3.1 8.44 5.31a87.109 87.109 0 0 0-4.51 4.2c-1.49 1.49-2.89 3-4.19 4.51C7 13.78 4.54 8.32 4.54 5.33zm1.21 36.55c-.69 0-.99-.15-1.02-.18-.19-.19-.68-2.33 1.69-7.26 1.28-2.67 3.1-5.54 5.31-8.44 1.31 1.51 2.71 3.02 4.2 4.51 1.49 1.49 3 2.89 4.51 4.19-6.24 4.73-11.7 7.18-14.69 7.18zm36.55-1.21c0 .69-.15.98-.18 1.02-.19.19-2.33.68-7.26-1.68-2.67-1.28-5.54-3.1-8.44-5.31 1.51-1.3 3.02-2.7 4.51-4.2 1.49-1.49 2.89-3 4.2-4.51 4.71 6.23 7.17 11.69 7.17 14.68z"></path></svg></g></svg>